<svg width="24" height="24" viewBox="0 0 24 24" fill="none" xmlns="http://www.w3.org/2000/svg">
<g clip-path="url(#clip0_4_1786)">
<path d="M13.9962 12.0002L23.586 2.4104C24.138 1.85841 24.138 0.966217 23.586 0.414233C23.034 -0.137752 22.1418 -0.137752 21.5899 0.414233L12 10.0041L2.41015 0.414233C1.85816 -0.137752 0.965972 -0.137752 0.413988 0.414233C-0.137996 0.966217 -0.137996 1.85841 0.413988 2.4104L10.0038 12.0002L0.413988 21.5901C-0.137996 22.1421 -0.137996 23.0343 0.413988 23.5862C0.689277 23.8615 1.05067 23.9999 1.41207 23.9999C1.77346 23.9999 2.13486 23.8615 2.41015 23.5862L12 13.9964L21.5898 23.5862C21.8651 23.8615 22.2265 23.9999 22.5879 23.9999C22.9493 23.9999 23.3107 23.8615 23.586 23.5862C24.1379 23.0343 24.1379 22.1421 23.586 21.5901L13.9962 12.0002Z" fill="#ffffff"/>
</g>
<defs>
<clipPath id="clip0_4_1786">
<rect width="24" height="24" fill="white"/>
</clipPath>
</defs>
</svg>
